<svg width="24" height="24" viewBox="0 0 24 24" fill="none" xmlns="http://www.w3.org/2000/svg">
<path d="M18 15.4375C18.4278 16.6278 19.3713 17.5719 20.5615 18C19.3716 18.428 18.428 19.3716 18 20.5615C17.5719 19.3713 16.6278 18.4278 15.4375 18C16.6281 17.5721 17.5721 16.6281 18 15.4375ZM9.17578 15.1172C8.60897 15.9657 8.22324 16.9447 8.07227 18H7.92773C7.77676 16.9447 7.39103 15.9657 6.82422 15.1172C6.93092 15.2769 7.03244 15.4408 7.12598 15.6094L8 17.1846L8.87402 15.6094C8.96756 15.4408 9.06908 15.2769 9.17578 15.1172ZM6.63965 14.8535C6.6856 14.9159 6.73051 14.979 6.77441 15.043C6.73052 14.979 6.68559 14.9159 6.63965 14.8535ZM9.22461 15.043C9.26861 14.9789 9.31429 14.916 9.36035 14.8535C9.3143 14.916 9.2686 14.9789 9.22461 15.043ZM6.41016 14.5586C6.47461 14.637 6.53758 14.7167 6.59863 14.7979C6.53759 14.7166 6.4746 14.637 6.41016 14.5586ZM9.43066 14.7588C9.4824 14.691 9.53572 14.6244 9.58984 14.5586C9.53573 14.6244 9.48239 14.691 9.43066 14.7588ZM6.21875 14.3359C6.26552 14.3882 6.31124 14.4414 6.35645 14.4951C6.31124 14.4414 6.26552 14.3882 6.21875 14.3359ZM9.64355 14.4951C9.68862 14.4416 9.73365 14.3881 9.78027 14.3359C9.73365 14.3881 9.68862 14.4416 9.64355 14.4951ZM5.74023 13.8496C5.88219 13.9803 6.01866 14.1169 6.14941 14.2588C6.01867 14.1169 5.88219 13.9803 5.74023 13.8496ZM10.2588 13.8496C10.1169 13.9803 9.98033 14.1169 9.84961 14.2588C9.98033 14.1169 10.1169 13.9803 10.2588 13.8496ZM5.49219 13.6328C5.54988 13.6812 5.60699 13.7301 5.66309 13.7803C5.60699 13.7301 5.54988 13.6812 5.49219 13.6328ZM10.3359 13.7803C10.392 13.7301 10.4492 13.6812 10.5068 13.6328C10.4491 13.6812 10.392 13.7301 10.3359 13.7803ZM5.20117 13.4004C5.27961 13.4593 5.35678 13.5199 5.43262 13.582C5.35678 13.5199 5.27962 13.4593 5.20117 13.4004ZM10.6699 13.5C10.7123 13.4665 10.7546 13.4329 10.7979 13.4004C10.7546 13.4329 10.7124 13.4665 10.6699 13.5ZM4.95605 13.2246C5.01977 13.2684 5.08236 13.3136 5.14453 13.3594C5.08235 13.3136 5.01978 13.2683 4.95605 13.2246ZM10.8545 13.3594C10.9167 13.3136 10.9793 13.2684 11.043 13.2246C10.9793 13.2683 10.9167 13.3136 10.8545 13.3594ZM4.86523 10.835C4.71093 10.9374 4.55317 11.0358 4.39062 11.126L2.81543 12L4.39062 12.874C4.55302 12.9641 4.71107 13.0617 4.86523 13.1641C4.02078 12.6036 3.04798 12.2222 2 12.0723V11.9268C3.04811 11.7768 4.02071 11.3955 4.86523 10.835ZM11.1338 10.835C11.9785 11.3958 12.9516 11.7767 14 11.9268V12.0723C12.9517 12.2222 11.9784 12.6034 11.1338 13.1641C11.2882 13.0616 11.4467 12.9643 11.6094 12.874L13.1846 12L11.6094 11.126C11.4466 11.0356 11.2883 10.9376 11.1338 10.835ZM5.15137 10.6357C5.08714 10.6831 5.02193 10.7292 4.95605 10.7744C5.02193 10.7292 5.08714 10.6831 5.15137 10.6357ZM11.043 10.7744C10.9773 10.7293 10.9126 10.683 10.8486 10.6357C10.9126 10.683 10.9773 10.7293 11.043 10.7744ZM5.43262 10.417C5.35678 10.4791 5.27961 10.5397 5.20117 10.5986C5.27962 10.5397 5.35677 10.4791 5.43262 10.417ZM10.7979 10.5986C10.7194 10.5397 10.6422 10.4791 10.5664 10.417C10.6422 10.4791 10.7194 10.5397 10.7979 10.5986ZM5.66309 10.2188C5.60699 10.2689 5.54988 10.3179 5.49219 10.3662C5.54989 10.3179 5.60699 10.2689 5.66309 10.2188ZM10.5068 10.3662C10.4492 10.3179 10.392 10.2689 10.3359 10.2188C10.392 10.2689 10.4491 10.3179 10.5068 10.3662ZM6.14941 9.74023C6.01867 9.88218 5.88219 10.0187 5.74023 10.1494C5.88219 10.0187 6.01867 9.88219 6.14941 9.74023ZM9.84961 9.74023C9.98033 9.88219 10.1169 10.0187 10.2588 10.1494C10.1169 10.0187 9.98033 9.88218 9.84961 9.74023ZM6.36621 9.49219C6.31785 9.54988 6.26891 9.60699 6.21875 9.66309C6.26891 9.60699 6.31786 9.54989 6.36621 9.49219ZM9.78027 9.66309C9.73012 9.607 9.68116 9.54988 9.63281 9.49219C9.68115 9.54988 9.73013 9.60699 9.78027 9.66309ZM6.59863 9.20117C6.53966 9.27961 6.47913 9.35678 6.41699 9.43262C6.47913 9.35677 6.53967 9.27962 6.59863 9.20117ZM9.58203 9.43262C9.5199 9.35678 9.45935 9.27961 9.40039 9.20117C9.45934 9.27962 9.51991 9.35678 9.58203 9.43262ZM6.77441 8.95605C6.73671 9.01096 6.69839 9.06537 6.65918 9.11914C6.69838 9.06537 6.73672 9.01097 6.77441 8.95605ZM9.34082 9.11914C9.3015 9.06522 9.26241 9.01112 9.22461 8.95605C9.2624 9.01112 9.30151 9.06522 9.34082 9.11914ZM8.07227 6C8.2222 7.04798 8.60364 8.02078 9.16406 8.86523C9.06173 8.71108 8.96413 8.55301 8.87402 8.39062L8 6.81543L7.12598 8.39062C7.03578 8.55317 6.93741 8.71094 6.83496 8.86523C7.39554 8.02067 7.77778 7.04817 7.92773 6H8.07227ZM17 3.67676C17.3102 4.23058 17.7685 4.68966 18.3223 5C17.7688 5.3102 17.3102 5.76878 17 6.32227C16.6897 5.76853 16.2306 5.31021 15.6768 5C16.2308 4.68965 16.6897 4.23083 17 3.67676Z" stroke="#0A0A0A" stroke-width="2"/>
</svg>
